<svg width="32" height="32" viewBox="0 0 32 32" fill="none" xmlns="http://www.w3.org/2000/svg">
<rect width="32" height="32" fill="#383F45"/>
<g clip-path="url(#clip0)">
<path d="M17.8812 14.3289C18.9063 15.354 18.9063 17.0161 17.8812 18.0413C16.856 19.0664 15.1939 19.0664 14.1688 18.0413C13.1436 17.0161 13.1436 15.354 14.1688 14.3289C15.1939 13.3037 16.856 13.3037 17.8812 14.3289" fill="white"/>
<path d="M23.375 9.46509H21.5612L20.248 6.84H10.7507L9.43878 9.46638L7.62763 9.4696C6.18372 9.47218 5.0083 10.6488 5.00705 12.0934L5 22.5899C5 24.0376 6.17731 25.2156 7.62509 25.2156H23.375C24.8227 25.2156 26 24.0383 26 22.5905V12.0901C26 10.6424 24.8227 9.46509 23.375 9.46509V9.46509ZM15.4997 21.9342C12.6048 21.9342 10.2495 19.579 10.2495 16.684C10.2495 13.7891 12.6048 11.4339 15.4997 11.4339C18.3946 11.4339 20.7499 13.7891 20.7499 16.684C20.7499 19.579 18.3946 21.9342 15.4997 21.9342V21.9342Z" fill="white"/>
</g>
<defs>
<clipPath id="clip0">
<rect width="21" height="21" fill="white" transform="translate(5 6)"/>
</clipPath>
</defs>
</svg>
